<svg width="24" height="24" fill="none" xmlns="http://www.w3.org/2000/svg"><path opacity=".4" d="M16.084 2H7.916C4.377 2 2 4.276 2 7.665v8.67C2 19.724 4.377 22 7.916 22h8.168C19.622 22 22 19.723 22 16.334v-8.67C22 4.277 19.622 2 16.084 2z" fill="#fff" fill-opacity=".5"/><path d="M11.145 7.72L7.38 11.47a.773.773 0 000 1.064l3.765 3.748a.75.75 0 001.059-1.064L9.726 12.75h6.354a.75.75 0 100-1.5H9.727l2.476-2.466a.749.749 0 00.003-1.061.751.751 0 00-1.061-.002z" fill="#fff" fill-opacity=".5"/></svg>