<svg width="24" height="24" fill="none" xmlns="http://www.w3.org/2000/svg"><path opacity=".4" d="M8.202 13.19l-3.699.328A1.51 1.51 0 013 12a1.51 1.51 0 011.503-1.518l3.7.327c.65 0 1.179.533 1.179 1.19 0 .66-.528 1.191-1.18 1.191z" fill="#fff" fill-opacity=".5"/><path d="M20.625 13.13c-.058.058-.274.305-.477.51-1.184 1.283-4.274 3.382-5.89 4.024-.246.102-.867.32-1.2.336a2 2 0 01-.91-.22 1.886 1.886 0 01-.808-.904c-.101-.262-.26-1.05-.26-1.064-.159-.86-.245-2.259-.245-3.805 0-1.472.086-2.814.216-3.688.014-.016.173-.993.347-1.328A1.814 1.814 0 0113 6h.058c.433.014 1.343.394 1.343.408 1.53.642 4.548 2.639 5.761 3.966 0 0 .343.342.491.554.231.306.347.685.347 1.064 0 .423-.13.816-.375 1.138z" fill="#fff" fill-opacity=".5"/></svg>