<svg width="24" height="24" fill="none" xmlns="http://www.w3.org/2000/svg"><path opacity=".4" d="M22 16.084V7.916C22 4.377 19.724 2 16.335 2h-8.67C4.276 2 2 4.377 2 7.916v8.168C2 19.622 4.277 22 7.666 22h8.669C19.724 22 22 19.622 22 16.084z" fill="#fff" fill-opacity=".5"/><path d="M16.28 11.145l-3.75-3.766a.773.773 0 00-1.064 0L7.72 11.145a.75.75 0 001.064 1.059l2.467-2.478v6.355a.75.75 0 101.5 0V9.726l2.466 2.477a.749.749 0 001.061.003.751.751 0 00.002-1.061z" fill="#fff" fill-opacity=".5"/></svg>