<svg width="24" height="24" fill="none" xmlns="http://www.w3.org/2000/svg"><path opacity=".4" d="M12.66 3.71v8.479a.71.71 0 01-1.422 0V3.71a.71.71 0 011.421 0z" fill="#fff" fill-opacity=".5"/><mask id="a" maskUnits="userSpaceOnUse" x="6" y="11" width="12" height="10"><path fill-rule="evenodd" clip-rule="evenodd" d="M6.5 11.479h10.897v8.939H6.5v-8.94z" fill="#fff"/></mask><g mask="url(#a)"><path d="M17.397 12.19a.715.715 0 01-.109.378l-4.738 7.518a.712.712 0 01-1.203 0l-4.738-7.518a.71.71 0 01-.02-.722.708.708 0 01.622-.367h9.475a.709.709 0 01.71.71z" fill="#fff" fill-opacity=".5"/></g></svg>