<svg width="24" height="24" fill="none" xmlns="http://www.w3.org/2000/svg"><path fill-rule="evenodd" clip-rule="evenodd" d="M20.913 16.315l-.769-6.195C19.676 7.91 18.35 7 17.087 7H6.932c-1.282 0-2.652.846-3.05 3.12l-.777 6.195C2.469 20.863 4.81 22 7.869 22h8.29c3.049 0 5.32-1.646 4.754-5.685zM9.097 12.149a.897.897 0 01-.884-.91c0-.502.396-.91.884-.91s.884.408.884.91-.396.91-.884.91zm4.905-.91c0 .502.396.91.884.91a.897.897 0 00.884-.91.897.897 0 00-.884-.91.897.897 0 00-.884.91z" fill="#fff" fill-opacity=".5"/><path opacity=".4" d="M16.974 6.774A.502.502 0 0116.93 7h-1.437a.648.648 0 01-.043-.226 3.478 3.478 0 00-3.484-3.472 3.478 3.478 0 00-3.484 3.472.649.649 0 010 .226H7.01a.649.649 0 010-.226A4.992 4.992 0 0112.005 2 4.992 4.992 0 0117 6.774h-.026z" fill="#fff" fill-opacity=".5"/></svg>