<svg width="24" height="24" fill="none" xmlns="http://www.w3.org/2000/svg"><path opacity=".4" d="M14.418 5.49a.854.854 0 00-1.004.68.862.862 0 00.678 1.01 3.462 3.462 0 012.743 2.75.86.86 0 001.006.681.865.865 0 00.677-1.01 5.174 5.174 0 00-4.1-4.111z" fill="#fff" fill-opacity=".5"/><path opacity=".4" d="M14.356 2.008a.817.817 0 00-.625.176.852.852 0 00-.323.584.86.86 0 00.757.95 6.912 6.912 0 016.126 6.139.857.857 0 101.704-.192c-.454-4.058-3.595-7.206-7.639-7.657z" fill="#fff" fill-opacity=".5"/><path fill-rule="evenodd" clip-rule="evenodd" d="M11.032 12.972c3.989 3.988 4.894-.625 7.434 1.913 2.448 2.448 3.856 2.938.753 6.04-.388.312-2.857 4.07-11.534-4.605C-.993 7.644 2.762 5.172 3.074 4.784c3.11-3.11 3.592-1.695 6.04.753 2.54 2.54-2.071 3.447 1.918 7.435z" fill="#fff" fill-opacity=".5"/></svg>