<svg width="24" height="24" fill="none" xmlns="http://www.w3.org/2000/svg"><path fill-rule="evenodd" clip-rule="evenodd" d="M6.185 14.205C-.246 6.918 2.97 4.74 3.254 4.385c3.069-3.112 3.545-1.695 5.955.752 2.031 2.07-.601 3.058.478 5.516l-3.502 3.552zm5.905-.823c3.28 2.694 4.206-1.159 6.529 1.202 2.397 2.447 3.775 2.941.736 6.043-.358.31-2.66 3.842-10.555-3.886l3.29-3.359z" fill="#fff" fill-opacity=".5"/><path opacity=".4" d="M21.375 3.86v.01l-9.416 9.645-8.515 8.73a.856.856 0 01-.594.255.898.898 0 01-.605-.254.898.898 0 01-.129-1.057l.03-.04a.518.518 0 01.07-.092l17.96-18.428a.816.816 0 01.594-.265c.228 0 .446.103.605.265a.894.894 0 010 1.23z" fill="#fff" fill-opacity=".5"/></svg>