<svg width="24" height="24" fill="none" xmlns="http://www.w3.org/2000/svg"><path fill-rule="evenodd" clip-rule="evenodd" d="M16.71 10.072c0 .5.4.9.9.9s.91-.4.91-.9-.41-.909-.91-.909-.9.41-.9.91zm-1.94 6.033a3.91 3.91 0 01-2.77 1.15 3.921 3.921 0 01-3.93-3.926 3.865 3.865 0 011.14-2.767A3.921 3.921 0 0112 9.402c1.05 0 2.04.41 2.78 1.15a3.939 3.939 0 011.15 2.777 3.958 3.958 0 01-1.16 2.776zM12 10.901c-.65 0-1.26.25-1.73.72a2.343 2.343 0 00-.7 1.697v.01c0 .65.25 1.26.71 1.719.46.46 1.07.709 1.72.709 1.34 0 2.42-1.089 2.43-2.428a2.41 2.41 0 00-.71-1.718 2.411 2.411 0 00-1.72-.709z" fill="#fff" fill-opacity=".5"/><path opacity=".4" d="M17.44 6.236l-.1-.22c-.27-.569-.58-1.228-.77-1.608C16.11 3.51 15.32 3.01 14.35 3H9.64c-.97.01-1.75.51-2.21 1.408-.2.4-.54 1.12-.82 1.709l-.06.12c-.03.08-.11.12-.19.12A4.361 4.361 0 002 10.71v5.934A4.361 4.361 0 006.36 21h11.28c2.4 0 4.36-1.958 4.36-4.355V10.71a4.368 4.368 0 00-4.36-4.355c-.09 0-.16-.05-.2-.12z" fill="#fff" fill-opacity=".5"/></svg>