<svg width="24" height="24" fill="none" xmlns="http://www.w3.org/2000/svg"><path opacity=".4" d="M16.884 5.115h-2.943a2.43 2.43 0 01-1.894-.887l-.969-1.34A2.367 2.367 0 009.193 2h-2.08C3.378 2 2 4.192 2 7.92v4.028c-.005.443 19.996.443 19.997 0v-1.17c.018-3.728-1.325-5.662-5.113-5.662z" fill="#fff" fill-opacity=".5"/><path fill-rule="evenodd" clip-rule="evenodd" d="M20.832 6.543c.32.375.567.805.73 1.27.318.954.465 1.957.435 2.963v5.253a9.346 9.346 0 01-.098 1.322 5.991 5.991 0 01-.8 2.183 4.436 4.436 0 01-.676.888 6 6 0 01-4.366 1.57H7.931a6.027 6.027 0 01-4.375-1.57 4.437 4.437 0 01-.667-.888 5.83 5.83 0 01-.782-2.183A8.202 8.202 0 012 16.03v-5.253c0-.439.024-.877.071-1.313.01-.077.025-.152.04-.226.025-.125.049-.247.049-.369.09-.526.255-1.037.49-1.517.693-1.482 2.115-2.236 4.445-2.236h9.78a5.22 5.22 0 013.628 1.1c.119.1.229.21.33.328zM6.97 15.541h10.083a.828.828 0 00.863-.799.744.744 0 00-.178-.532.783.783 0 00-.622-.32H6.97a.826.826 0 100 1.651z" fill="#fff" fill-opacity=".5"/></svg>