<svg width="24" height="24" fill="none" xmlns="http://www.w3.org/2000/svg"><path d="M10.153 5.556c.05.103.084.214.1.328l.278 4.14.138 2.081c.002.214.035.427.1.631.167.397.568.649 1.005.631l6.657-.436c.289-.004.567.104.774.3.173.164.284.379.32.61l.011.14c-.275 3.814-3.077 6.996-6.884 7.817-3.806.821-7.71-.914-9.591-4.263a8.214 8.214 0 01-.997-3.146 6.02 6.02 0 01-.063-.986c-.006-4.09 2.906-7.626 6.983-8.478.491-.077.972.183 1.169.63z" fill="#fff" fill-opacity=".5"/><path opacity=".4" d="M12.87 2c4.56.117 8.392 3.396 9.13 7.812l-.007.033-.02.047.003.13a.8.8 0 01-.192.473.827.827 0 01-.462.27l-.11.016-7.68.498a.917.917 0 01-.7-.227.884.884 0 01-.289-.537l-.515-7.67a.122.122 0 010-.08.784.784 0 01.258-.555.815.815 0 01.584-.21z" fill="#fff" fill-opacity=".5"/></svg>