<svg width="24" height="24" fill="none" xmlns="http://www.w3.org/2000/svg"><path opacity=".4" d="M11.776 21.837a36.258 36.258 0 01-6.328-4.957 12.668 12.668 0 01-3.03-4.805C1.28 8.535 2.603 4.49 6.3 3.288A6.282 6.282 0 0112.007 4.3a6.291 6.291 0 015.706-1.012c3.697 1.201 5.03 5.247 3.893 8.787a12.669 12.669 0 01-3.013 4.805 36.583 36.583 0 01-6.328 4.957l-.249.163-.24-.163z" fill="#fff" fill-opacity=".5"/><path d="M12.01 22l-.234-.163a36.316 36.316 0 01-6.337-4.957 12.667 12.667 0 01-3.048-4.805c-1.13-3.54.195-7.586 3.892-8.787a6.296 6.296 0 015.728 1.023V22zm6.22-12a.719.719 0 01-.517-.278.818.818 0 01-.167-.592c.022-.702-.378-1.341-.994-1.59-.391-.107-.628-.53-.53-.948.093-.41.477-.666.864-.573a.384.384 0 01.138.052c1.236.476 2.036 1.755 1.973 3.155a.808.808 0 01-.23.56.708.708 0 01-.537.213z" fill="#fff" fill-opacity=".5"/></svg>