<svg width="24" height="24" fill="none" xmlns="http://www.w3.org/2000/svg"><path opacity=".4" d="M16.34 2H7.67C4.28 2 2 4.38 2 7.92v8.17C2 19.62 4.28 22 7.67 22h8.67c3.39 0 5.66-2.38 5.66-5.91V7.92C22 4.38 19.73 2 16.34 2z" fill="#fff" fill-opacity=".5"/><path fill-rule="evenodd" clip-rule="evenodd" d="M11.125 8.19a.878.878 0 001.755 0 .876.876 0 00-.875-.876.879.879 0 00-.88.875zm1.745 3.172a.877.877 0 00-.875-.875.877.877 0 00-.875.875v4.42c0 .482.393.875.875.875a.877.877 0 00.875-.875v-4.42z" fill="#fff" fill-opacity=".5"/></svg>