<svg width="24" height="24" fill="none" xmlns="http://www.w3.org/2000/svg"><path fill-rule="evenodd" clip-rule="evenodd" d="M8.532 2.937a6.89 6.89 0 017.034.058C17.71 4.327 19.012 6.705 19 9.26c-.05 2.54-1.447 4.929-3.193 6.775a18.727 18.727 0 01-3.358 2.82 1.173 1.173 0 01-.408.144.82.82 0 01-.39-.119 18.515 18.515 0 01-4.839-4.547A9.28 9.28 0 015 9.134c-.001-2.562 1.347-4.928 3.532-6.197zm1.262 7.258a2.378 2.378 0 002.198 1.497 2.339 2.339 0 001.683-.701c.446-.454.696-1.07.694-1.713a2.423 2.423 0 00-1.462-2.243 2.346 2.346 0 00-2.594.52 2.455 2.455 0 00-.519 2.64z" fill="#fff" fill-opacity=".5"/><ellipse opacity=".4" cx="12" cy="21" rx="5" ry="1" fill="#fff" fill-opacity=".5"/></svg>