<svg width="24" height="24" fill="none" xmlns="http://www.w3.org/2000/svg"><path opacity=".4" d="M7.296 6.446C7.296 3.995 9.356 2 11.888 2h5.032c2.525 0 4.58 1.99 4.58 4.436v11.116c0 2.452-2.059 4.448-4.59 4.448h-5.033c-2.525 0-4.58-1.991-4.58-4.438V6.446z" fill="#fff" fill-opacity=".5"/><path d="M16.037 11.454l-2.967-2.91a.79.79 0 00-1.107.003.762.762 0 00.002 1.089l1.626 1.593H3.282a.777.777 0 00-.782.77c0 .426.35.77.782.77h10.309l-1.626 1.594a.762.762 0 00-.002 1.089.788.788 0 001.107.002l2.967-2.91a.766.766 0 00.231-.544.766.766 0 00-.23-.546z" fill="#fff" fill-opacity=".5"/></svg>