<svg width="24" height="24" fill="none" xmlns="http://www.w3.org/2000/svg"><path opacity=".4" d="M22 12c0 5.524-4.477 10-10 10S2 17.524 2 12C2 6.478 6.477 2 12 2s10 4.478 10 10z" fill="#fff" fill-opacity=".5"/><path fill-rule="evenodd" clip-rule="evenodd" d="M7.521 10.803c-.66 0-1.198.537-1.198 1.196a1.2 1.2 0 001.198 1.198A1.2 1.2 0 008.72 12c0-.66-.537-1.197-1.198-1.197zm4.48 0c-.662 0-1.199.537-1.199 1.196A1.2 1.2 0 0012 13.197 1.2 1.2 0 0013.198 12c0-.66-.537-1.197-1.198-1.197zM15.28 12a1.198 1.198 0 012.397 0 1.2 1.2 0 01-1.198 1.198A1.2 1.2 0 0115.282 12z" fill="#fff" fill-opacity=".5"/></svg>