<svg width="24" height="24" fill="none" xmlns="http://www.w3.org/2000/svg"><path opacity=".4" d="M18.809 9.021c-.452 0-1.05-.01-1.794-.01-1.816 0-3.31-1.503-3.31-3.336V2.459A.456.456 0 0013.253 2h-5.29C5.496 2 3.5 4.026 3.5 6.509v10.775C3.5 19.889 5.591 22 8.17 22h7.876c2.46 0 4.454-2.013 4.454-4.498V9.471a.454.454 0 00-.453-.458c-.423.003-.93.008-1.238.008z" fill="#fff" fill-opacity=".5"/><path opacity=".4" d="M16.084 2.567a.477.477 0 00-.821.334v2.637c0 1.106.91 2.016 2.017 2.016.697.008 1.665.01 2.488.008a.477.477 0 00.342-.808l-4.026-4.187z" fill="#fff" fill-opacity=".5"/><path d="M14.367 14.57H9.424a.745.745 0 110-1.49h4.943a.746.746 0 010 1.49z" fill="#fff" fill-opacity=".5"/></svg>