<svg width="24" height="24" fill="none" xmlns="http://www.w3.org/2000/svg"><path d="M21.427 2.578c-.5-.51-1.24-.7-1.93-.5l-16.09 4.65a1.914 1.914 0 00-1.383 1.51c-.142.746.354 1.694 1.002 2.09L8.057 13.4a1.308 1.308 0 001.61-.19l5.76-5.762a.735.735 0 011.06 0c.29.29.29.76 0 1.06l-5.77 5.761a1.31 1.31 0 00-.194 1.61l3.074 5.05c.36.598.98.94 1.66.94.08 0 .17 0 .25-.012.78-.099 1.4-.63 1.63-1.38l4.77-15.969c.21-.68.02-1.42-.48-1.93z" fill="#fff" fill-opacity=".5"/><path opacity=".4" fill-rule="evenodd" clip-rule="evenodd" d="M3.01 16.808a.749.749 0 01-.53-1.28l1.365-1.366a.752.752 0 011.061 0 .752.752 0 010 1.06L3.54 16.589a.744.744 0 01-.53.22zM6.772 18a.749.749 0 01-.53-1.28l1.365-1.366a.752.752 0 011.06 0 .752.752 0 010 1.061L7.303 17.78a.744.744 0 01-.53.22zm.253 3.568c.146.147.338.22.53.22a.744.744 0 00.53-.22l1.366-1.365a.752.752 0 000-1.06.752.752 0 00-1.06 0l-1.366 1.365a.749.749 0 000 1.06z" fill="#fff" fill-opacity=".5"/></svg>