<svg width="24" height="24" fill="none" xmlns="http://www.w3.org/2000/svg"><path opacity=".4" d="M12.086 22a.777.777 0 01-.358-.086L8.126 20.05c-1.023-.53-1.822-1.124-2.445-1.816a8.244 8.244 0 01-2.14-5.474L3.5 6.124a1.812 1.812 0 011.227-1.712l6.613-2.305c.394-.14.832-.142 1.23-.007l6.638 2.227a1.81 1.81 0 011.25 1.695l.042 6.64a8.242 8.242 0 01-2.065 5.496c-.618.702-1.41 1.305-2.421 1.845l-3.57 1.906a.768.768 0 01-.358.091z" fill="#fff" fill-opacity=".5"/><path d="M13.068 11.725l1.358-1.323a.721.721 0 000-1.04.77.77 0 00-1.068 0l-1.359 1.322-1.357-1.321a.77.77 0 00-1.068 0 .721.721 0 000 1.04l1.358 1.322-1.358 1.323a.721.721 0 000 1.04.763.763 0 00.535.215.763.763 0 00.533-.216L12 12.765l1.359 1.322a.76.76 0 00.533.216.763.763 0 00.535-.216.721.721 0 000-1.04l-1.358-1.322z" fill="#fff" fill-opacity=".5"/></svg>