<svg width="24" height="24" fill="none" xmlns="http://www.w3.org/2000/svg"><path opacity=".4" d="M21.25 13.476a1.484 1.484 0 01-1.489-1.475c0-.814.668-1.476 1.489-1.476.199 0 .39-.079.53-.217A.74.74 0 0022 9.78l-.001-2.677C21.999 4.841 20.14 3 17.856 3H6.144C3.86 3 2.001 4.841 2.001 7.104L2 9.868a.74.74 0 00.22.526c.14.139.331.217.53.217.849 0 1.489.597 1.489 1.39 0 .814-.668 1.475-1.489 1.475a.747.747 0 00-.75.743v2.676C2 19.158 3.858 21 6.143 21h11.714C20.142 21 22 19.158 22 16.895V14.22a.747.747 0 00-.75-.744z" fill="#fff" fill-opacity=".5"/><path d="M15.43 11.589l-1.178 1.148.278 1.623a.732.732 0 01-.295.724.73.73 0 01-.78.055l-1.456-.765-1.458.766a.737.737 0 01-.343.087.738.738 0 01-.434-.142.736.736 0 01-.295-.725l.278-1.623-1.179-1.148a.737.737 0 01.413-1.262l1.627-.237.728-1.477A.738.738 0 0112 8.2h.002a.736.736 0 01.663.413l.729 1.476 1.628.238a.732.732 0 01.596.5.73.73 0 01-.187.76z" fill="#fff" fill-opacity=".5"/></svg>