<svg width="24" height="24" fill="none" xmlns="http://www.w3.org/2000/svg"><path opacity=".4" d="M13.75 9.703v-2.02a.72.72 0 01-.725-.704V4.574a.577.577 0 00-.59-.574H5.791C3.702 4 2 5.653 2 7.683v2.433a.69.69 0 00.213.498.74.74 0 00.512.206c.735 0 1.296.507 1.296 1.174 0 .697-.57 1.25-1.286 1.26-.397 0-.735.272-.735.666v2.406C2 18.356 3.702 20 5.781 20h6.654c.329 0 .59-.255.59-.573v-2.03c0-.394.329-.705.726-.705V14.87a.721.721 0 01-.726-.704v-3.758a.72.72 0 01.726-.705z" fill="#fff" fill-opacity=".5"/><path d="M19.979 11.995c0 .695.58 1.25 1.286 1.259.396 0 .735.272.735.657v2.415C22 18.356 20.308 20 18.219 20h-3.153a.585.585 0 01-.59-.574v-2.03a.708.708 0 00-.726-.704V14.87c.407 0 .726-.32.726-.704v-3.758a.714.714 0 00-.726-.705v-2.02c.407 0 .726-.32.726-.705V4.574c0-.32.27-.574.59-.574h3.153C20.307 4 22 5.644 22 7.673v2.368a.693.693 0 01-.213.498.735.735 0 01-.512.206c-.716 0-1.296.565-1.296 1.25z" fill="#fff" fill-opacity=".5"/></svg>