<svg width="24" height="24" fill="none" xmlns="http://www.w3.org/2000/svg"><path opacity=".4" d="M21.331 7.443a1.383 1.383 0 00-1.373-.064l-1.482.748a1.618 1.618 0 00-.888 1.456v5.833c0 .622.34 1.179.888 1.457l1.481.747c.201.104.416.153.631.153A1.429 1.429 0 0022 16.34V8.662c0-.5-.25-.955-.669-1.22z" fill="#fff" fill-opacity=".5"/><path d="M11.905 20H6.113C3.691 20 2 18.33 2 15.94V9.06C2 6.67 3.691 5 6.113 5h5.792c2.422 0 4.113 1.669 4.113 4.06v6.88c0 2.39-1.69 4.06-4.113 4.06z" fill="#fff" fill-opacity=".5"/></svg>