<svg width="24" height="24" fill="none" xmlns="http://www.w3.org/2000/svg"><path d="M11.825 15.217h.35a4.348 4.348 0 004.13-2.94.387.387 0 00-.372-.506h-1.077a.615.615 0 01-.62-.611c0-.339.277-.613.62-.613H15.9a.622.622 0 00.626-.618.622.622 0 00-.626-.618h-1.044a.616.616 0 01-.62-.613c0-.338.277-.613.62-.613H15.9a.622.622 0 00.626-.618.622.622 0 00-.626-.618h-1.044a.616.616 0 01-.62-.613c0-.338.277-.612.62-.612h1.133c.26 0 .445-.245.375-.493A4.345 4.345 0 0012.174 2h-.349C9.422 2 7.474 3.923 7.474 6.297v4.623c0 2.373 1.948 4.297 4.351 4.297z" fill="#fff" fill-opacity=".5"/><path opacity=".4" d="M19.531 9.826a.962.962 0 00-.968.956c0 3.573-2.944 6.48-6.562 6.48-3.62 0-6.564-2.907-6.564-6.48a.962.962 0 00-.968-.956.962.962 0 00-.969.956c0 4.305 3.3 7.86 7.532 8.337v1.924c0 .528.433.957.969.957a.963.963 0 00.968-.957V19.12c4.232-.478 7.531-4.032 7.531-8.337a.962.962 0 00-.969-.956z" fill="#fff" fill-opacity=".5"/></svg>