<svg width="24" height="24" fill="none" xmlns="http://www.w3.org/2000/svg"><path opacity=".4" d="M19.531 9.826a.962.962 0 00-.968.956c0 3.573-2.944 6.48-6.562 6.48-3.62 0-6.564-2.907-6.564-6.48a.962.962 0 00-.968-.956.962.962 0 00-.969.956c0 4.305 3.3 7.86 7.532 8.337v1.924c0 .528.433.957.969.957a.963.963 0 00.968-.957V19.12c4.232-.478 7.531-4.032 7.531-8.337a.962.962 0 00-.969-.956z" fill="#fff" fill-opacity=".5"/><path d="M11.825 15.217h.35c2.403 0 4.352-1.924 4.352-4.296V6.297c0-2.374-1.95-4.297-4.352-4.297h-.35C9.422 2 7.473 3.923 7.473 6.297v4.624c0 2.372 1.95 4.296 4.352 4.296z" fill="#fff" fill-opacity=".5"/></svg>