<svg width="305" height="161" fill="none" xmlns="http://www.w3.org/2000/svg"><path d="M34 35C5 39.5 1.5 68 1.5 68v92h282s55.001-157.123 0-144.5C268.083 19.038 263.79 35.94 248 35c-19.028-1.132-16.564-31.313-35.5-33.5-26-3.003-23.334 29.225-43.5 28-12.729-.773-16.777-13.142-29.5-14-22.059-1.488-14 33-46 33C69.673 48.5 57.545 31.346 34 35z" fill="url(#paint0_linear)"/><path d="M34 35C6 38 1.5 68 1.5 68v92h282s55.001-157.123 0-144.5C268.083 19.038 263.79 35.94 248 35c-19.028-1.132-16.564-31.313-35.5-33.5-26-3.003-23.334 29.225-43.5 28-12.729-.773-16.777-13.142-29.5-14-22.059-1.488-14 33-46 33C69.673 48.5 57.691 32.462 34 35z" stroke="#fff" stroke-width="2"/><defs><linearGradient id="paint0_linear" x1="154.722" y1="1.302" x2="154.722" y2="160" gradientUnits="userSpaceOnUse"><stop stop-color="#fff" stop-opacity=".4"/><stop offset="1" stop-color="#fff" stop-opacity="0"/></linearGradient></defs></svg>