<svg width="24" height="24" fill="none" xmlns="http://www.w3.org/2000/svg"><g clip-path="url(#clip0)" fill="#fff" fill-opacity=".5"><path d="M11.999 4.483l7.119 4.246L24 4.954 16.939.5l-4.94 3.983zm.001.002L7.06.5 0 4.953 4.883 8.73 12 4.485z"/><path d="M12 12.976l4.939 3.983L24 12.506l-4.883-3.777L12 12.975 4.881 8.729 0 12.506l7.06 4.453L12 12.976z"/><path d="M19.501 19.187v-2.125l-2.204 1.39v.001c-.828.527-1.205-.536-5.296-3.602-4.161 3.128-4.473 4.12-5.298 3.601l-2.202-1.389v2.124l7.515 4.313 7.485-4.313z"/></g><defs><clipPath id="clip0"><path fill="#fff" d="M0 0h24v24H0z"/></clipPath></defs></svg>