<svg width="24" height="24" fill="none" xmlns="http://www.w3.org/2000/svg"><g clip-path="url(#clip0)" fill="#fff"><path d="M8.87 2.609l3.172 5.556 5.175 9.052H7.012l-2.316 4.174h14.608l4.174-4.174L15.13 2.61H8.87z" fill-opacity=".5"/><path d="M4.496 21.873a.52.52 0 00.2.04h14.608a.52.52 0 00.37-.153l4.171-4.172h.001l.001-.002.002-.002a.537.537 0 00.08-.105c.009-.014.013-.03.02-.045a.506.506 0 00.052-.216l-.002-.005a.528.528 0 00-.05-.212c-.006-.014-.01-.03-.018-.043L15.583 2.35a.522.522 0 00-.452-.263H8.87a.514.514 0 00-.297.098l-.033.025a.516.516 0 00-.122.137v.002l-.002.001L.07 16.96a.522.522 0 00.084.627l4.173 4.174a.532.532 0 00.17.113zm14.592-1.003H5.583l1.738-3.13H22.22l-3.13 3.13zM7.901 16.696l4.149-7.47 4.268 7.47H7.902zM14.828 3.13l7.751 13.565H17.52L9.768 3.13h5.06zm-5.958.53l2.575 4.506-6.87 12.366-3.402-3.403L8.87 3.661z"/></g><defs><clipPath id="clip0"><path fill="#fff" d="M0 0h24v24H0z"/></clipPath></defs></svg>