<svg width="300" height="240" fill="none" xmlns="http://www.w3.org/2000/svg"><rect width="300" height="240" rx="6" fill="#EFF0F6"/><path d="M193.75 63.75h-87.5c-6.904 0-12.5 5.596-12.5 12.5v87.5c0 6.904 5.596 12.5 12.5 12.5h87.5c6.904 0 12.5-5.596 12.5-12.5v-87.5c0-6.904-5.596-12.5-12.5-12.5z" stroke="#D6D7E3" stroke-width="2" stroke-linecap="round" stroke-linejoin="round"/><path d="M128.125 107.5a9.375 9.375 0 009.375-9.375 9.375 9.375 0 00-9.375-9.375 9.375 9.375 0 00-9.375 9.375 9.375 9.375 0 009.375 9.375zm78.125 31.25L175 107.5l-68.75 68.75" stroke="#D6D7E3" stroke-width="2" stroke-linecap="round" stroke-linejoin="round"/></svg>