<svg width="49" height="50" fill="none" xmlns="http://www.w3.org/2000/svg"><path fill-rule="evenodd" clip-rule="evenodd" d="M30.452 3.237a8.595 8.595 0 00-12.155 0L2.517 19.016a8.595 8.595 0 000 12.156l15.78 15.779a8.595 8.595 0 0012.155 0l15.78-15.78a8.595 8.595 0 000-12.155l-15.78-15.78zm-6.078 33.46c6.41 0 11.604-5.195 11.604-11.603 0-6.409-5.195-11.604-11.604-11.604-6.408 0-11.603 5.195-11.603 11.604 0 6.408 5.195 11.603 11.604 11.603z" fill="#fff"/><circle cx="24.497" cy="25.216" r="7.736" stroke="#fff" stroke-opacity=".5" stroke-width="2.579"/><circle cx="24.497" cy="25.216" r="3.868" fill="#fff" fill-opacity=".8"/></svg>