<svg width="60" height="60" fill="none" xmlns="http://www.w3.org/2000/svg"><g clip-path="url(#clip0)" fill="#A0A3BD"><path d="M43.633 60c-.42 0-.85-.053-1.276-.165L3.7 49.482c-2.65-.73-4.23-3.475-3.535-6.125l4.878-18.18a1.257 1.257 0 011.53-.885 1.25 1.25 0 01.885 1.53L2.583 43.997a2.537 2.537 0 001.775 3.073L43 57.417c1.328.35 2.697-.44 3.042-1.76l1.953-7.235a1.248 1.248 0 011.533-.882c.667.18 1.06.867.882 1.532l-1.95 7.225C47.873 58.522 45.847 60 43.632 60z"/><path d="M55 45H15c-2.758 0-5-2.242-5-5V10c0-2.758 2.242-5 5-5h40c2.758 0 5 2.242 5 5v30c0 2.758-2.242 5-5 5zM15 7.5a2.504 2.504 0 00-2.5 2.5v30c0 1.377 1.123 2.5 2.5 2.5h40c1.377 0 2.5-1.123 2.5-2.5V10c0-1.377-1.123-2.5-2.5-2.5H15z"/><path d="M22.5 22.5c-2.758 0-5-2.242-5-5s2.242-5 5-5 5 2.242 5 5-2.242 5-5 5zm0-7.5a2.504 2.504 0 00-2.5 2.5c0 1.378 1.122 2.5 2.5 2.5s2.5-1.122 2.5-2.5-1.122-2.5-2.5-2.5zM11.425 42.325a1.25 1.25 0 01-.885-2.133l11.807-11.807c1.415-1.415 3.888-1.415 5.303 0l3.515 3.515 9.73-11.675a3.756 3.756 0 012.855-1.35h.027c1.095 0 2.133.475 2.848 1.308L59.7 35.438c.45.522.39 1.312-.135 1.762-.523.45-1.31.392-1.763-.135L44.727 21.81a1.237 1.237 0 00-.95-.435c-.26-.023-.717.157-.96.45L32.21 34.553c-.225.27-.553.432-.905.447a1.203 1.203 0 01-.94-.365l-4.483-4.482c-.472-.47-1.295-.47-1.767 0L12.307 41.96a1.246 1.246 0 01-.882.365z"/></g><defs><clipPath id="clip0"><path fill="#fff" d="M0 0h60v60H0z"/></clipPath></defs></svg>